<svg width="28" height="28" viewBox="0 0 28 28" fill="none" xmlns="http://www.w3.org/2000/svg">
<path d="M21.327 3.24532C22.5623 3.24532 23.3453 3.66444 23.8417 4.16077C24.8123 5.13136 25.4961 7.19386 23.3123 11.5725L22.3527 13.4806C22.2314 13.7343 22.2314 14.2637 22.3527 14.5174L23.3123 16.4255C25.5071 20.8041 24.8122 22.8777 23.8417 23.8372C22.8821 24.8078 20.8086 25.5027 16.4409 23.3078L6.99975 18.5872C4.65049 17.4181 3.36004 15.7858 3.36004 13.999C3.36004 12.2122 4.65049 10.5799 6.98872 9.41077L16.4299 4.69018C18.5696 3.62032 20.1578 3.24532 21.327 3.24532ZM21.327 23.0983C21.9225 23.0983 22.3858 22.9549 22.6725 22.6681C23.4777 21.874 23.1578 19.8115 21.8343 17.1755L20.8748 15.2564C20.5218 14.5394 20.5218 13.4586 20.8748 12.7416L21.8343 10.8336C23.1578 8.1865 23.4777 6.13503 22.6725 5.34091C21.8784 4.53577 19.8159 4.85562 17.1689 6.17915L7.72769 10.8997C5.99608 11.76 5.01446 12.8961 5.01446 14.01C5.01446 15.124 6.0071 16.26 7.73872 17.1203L17.1799 21.8299C18.8564 22.6681 20.3012 23.0983 21.327 23.0983Z" fill="#2949A6"/>
<path d="M15.338 13.1718L21.2939 13.1718C21.7461 13.1718 22.1211 13.5468 22.1211 13.999C22.1211 14.4512 21.7461 14.8262 21.2939 14.8262L15.338 14.8262C14.8858 14.8262 14.5108 14.4512 14.5108 13.999C14.5108 13.5468 14.8858 13.1718 15.338 13.1718Z" fill="#2949A6"/>
</svg>
