<svg width="28" height="28" viewBox="0 0 28 28" fill="none" xmlns="http://www.w3.org/2000/svg">
<path d="M6.6728 24.7537C5.43751 24.7537 4.65442 24.3346 4.15809 23.8383C3.18751 22.8677 2.50368 20.8052 4.68751 16.4265L5.64706 14.5184C5.76839 14.2647 5.76839 13.7353 5.64706 13.4816L4.68751 11.5736C2.49265 7.19488 3.18751 5.12135 4.15809 4.16179C5.11765 3.1912 7.19118 2.49635 11.5588 4.6912L21 9.41179C23.3493 10.5809 24.6397 12.2133 24.6397 14C24.6397 15.7868 23.3493 17.4191 21.011 18.5883L11.5699 23.3088C9.43015 24.3787 7.84192 24.7537 6.6728 24.7537ZM6.6728 4.90076C6.07721 4.90076 5.61398 5.04414 5.32721 5.3309C4.52206 6.12502 4.84192 8.18752 6.16545 10.8236L7.12501 12.7427C7.47795 13.4596 7.47795 14.5405 7.12501 15.2574L6.16545 17.1655C4.84192 19.8125 4.52206 21.864 5.32721 22.6581C6.12133 23.4633 8.18383 23.1434 10.8309 21.8199L20.2721 17.0993C22.0037 16.239 22.9853 15.103 22.9853 13.989C22.9853 12.875 21.9927 11.739 20.261 10.8787L10.8199 6.16914C9.14339 5.3309 7.69853 4.90076 6.6728 4.90076Z" fill="#2949A6"/>
<path d="M12.6618 14.8272H6.70588C6.25368 14.8272 5.87868 14.4522 5.87868 14C5.87868 13.5478 6.25368 13.1728 6.70588 13.1728H12.6618C13.114 13.1728 13.489 13.5478 13.489 14C13.489 14.4522 13.114 14.8272 12.6618 14.8272Z" fill="#2949A6"/>
</svg>
